<svg xmlns="http://www.w3.org/2000/svg" viewBox="0 0 32 32" role="img" aria-label="Claude Per˙">
  <rect width="32" height="32" fill="#09090b"/>
  <g fill="#D97E63" transform="translate(16 16)">
    <rect x="-1.2" y="-11" width="2.4" height="9.5" rx="0.6"/>
    <rect x="-1.2" y="-11" width="2.4" height="9.5" rx="0.6" transform="rotate(27)"/>
    <rect x="-1.2" y="-11" width="2.4" height="9.5" rx="0.6" transform="rotate(54)"/>
    <rect x="-1.2" y="-11" width="2.4" height="9.5" rx="0.6" transform="rotate(81)"/>
    <rect x="-1.2" y="-11" width="2.4" height="9.5" rx="0.6" transform="rotate(108)"/>
    <rect x="-1.2" y="-11" width="2.4" height="9.5" rx="0.6" transform="rotate(135)"/>
    <rect x="-1.2" y="-11" width="2.4" height="9.5" rx="0.6" transform="rotate(162)"/>
    <rect x="-1.2" y="-11" width="2.4" height="9.5" rx="0.6" transform="rotate(189)"/>
    <rect x="-1.2" y="-11" width="2.4" height="9.5" rx="0.6" transform="rotate(216)"/>
    <rect x="-1.2" y="-11" width="2.4" height="9.5" rx="0.6" transform="rotate(243)"/>
    <rect x="-1.2" y="-11" width="2.4" height="9.5" rx="0.6" transform="rotate(270)"/>
    <rect x="-1.2" y="-11" width="2.4" height="9.5" rx="0.6" transform="rotate(297)"/>
    <rect x="-1.2" y="-11" width="2.4" height="9.5" rx="0.6" transform="rotate(324)"/>
    <rect x="-1.2" y="-11" width="2.4" height="9.5" rx="0.6" transform="rotate(351)"/>
    <circle r="2.8"/>
  </g>
</svg>
