<svg xmlns="http://www.w3.org/2000/svg" viewBox="0 0 180 180" role="img" aria-label="Claude Perº">
  <rect width="180" height="180" rx="32" fill="#D97E63"/>
  <g fill="none" stroke="#F5F1EB" stroke-width="9" stroke-linecap="round" stroke-linejoin="round">
    <path d="M90 57.4a6.75 6.75 0 0 0-5.63-3.15l-20.7-5.35a1.69 1.69 0 0 1 0-3.27l20.7-5.35a6.75 6.75 0 0 0 3.15-5.63l5.35-20.7a1.69 1.69 0 0 1 3.27 0l5.35 20.7a6.75 6.75 0 0 0 5.63 3.15l20.7 5.35a1.69 1.69 0 0 1 0 3.27l-20.7 5.35a6.75 6.75 0 0 0-3.15 5.63l-5.35 20.7a1.69 1.69 0 0 1-3.27 0z"/>
    <path d="M125 44v10.7"/>
    <path d="M130.3 49.35h-10.7"/>
    <path d="M51.2 126v5.6"/>
    <path d="M54 128.8H48.4"/>
  </g>
</svg>
