<svg xmlns="http://www.w3.org/2000/svg" viewBox="0 0 180 180" role="img" aria-label="Claude Per˙">
  <rect width="180" height="180" fill="#09090b"/>
  <g fill="#D97E63" transform="translate(90 90)">
    <rect x="-7" y="-62" width="14" height="53" rx="3"/>
    <rect x="-7" y="-62" width="14" height="53" rx="3" transform="rotate(27)"/>
    <rect x="-7" y="-62" width="14" height="53" rx="3" transform="rotate(54)"/>
    <rect x="-7" y="-62" width="14" height="53" rx="3" transform="rotate(81)"/>
    <rect x="-7" y="-62" width="14" height="53" rx="3" transform="rotate(108)"/>
    <rect x="-7" y="-62" width="14" height="53" rx="3" transform="rotate(135)"/>
    <rect x="-7" y="-62" width="14" height="53" rx="3" transform="rotate(162)"/>
    <rect x="-7" y="-62" width="14" height="53" rx="3" transform="rotate(189)"/>
    <rect x="-7" y="-62" width="14" height="53" rx="3" transform="rotate(216)"/>
    <rect x="-7" y="-62" width="14" height="53" rx="3" transform="rotate(243)"/>
    <rect x="-7" y="-62" width="14" height="53" rx="3" transform="rotate(270)"/>
    <rect x="-7" y="-62" width="14" height="53" rx="3" transform="rotate(297)"/>
    <rect x="-7" y="-62" width="14" height="53" rx="3" transform="rotate(324)"/>
    <rect x="-7" y="-62" width="14" height="53" rx="3" transform="rotate(351)"/>
    <circle r="16"/>
  </g>
</svg>
