<svg xmlns="http://www.w3.org/2000/svg" viewBox="0 0 32 32" role="img" aria-label="Claude Perº">
  <rect width="32" height="32" rx="6" fill="#D97E63"/>
  <g fill="none" stroke="#F5F1EB" stroke-width="1.75" stroke-linecap="round" stroke-linejoin="round">
    <path d="M16 10.2a1.2 1.2 0 0 0-1-.56l-3.68-.95a.3.3 0 0 1 0-.58l3.68-.95a1.2 1.2 0 0 0 .56-1l.95-3.68a.3.3 0 0 1 .58 0l.95 3.68a1.2 1.2 0 0 0 1 .56l3.68.95a.3.3 0 0 1 0 .58l-3.68.95a1.2 1.2 0 0 0-.56 1l-.95 3.68a.3.3 0 0 1-.58 0z"/>
    <path d="M22.2 7.8v1.9"/>
    <path d="M23.15 8.75h-1.9"/>
    <path d="M9.1 22.4v1"/>
    <path d="M9.6 22.9H8.6"/>
  </g>
</svg>
